REM DIRINDEX 1\2,1\3,1\4,1\5
REM DIRNAME folder01,folder02,folder03,folder04,folder05
TITLE ""
FILE "P1Q_j_1565-1578.mp3" MP3
  TRACK 01 AUDIO
    TITLE "3:cjc005_0044"
    INDEX 01 00:00:00
  TRACK 02 AUDIO
    TITLE "0:"
    INDEX 01 00:01:44
  TRACK 03 AUDIO
    TITLE "4:cjc005_0045"
    INDEX 01 00:01:69
  TRACK 04 AUDIO
    TITLE "0:"
    INDEX 01 00:03:29
  TRACK 05 AUDIO
    TITLE "5:cjc005_0046"
    INDEX 01 00:03:53
  TRACK 06 AUDIO
    TITLE "0:"
    INDEX 01 00:07:23
  TRACK 07 AUDIO
    TITLE "3:cjc005_0047"
    INDEX 01 00:08:03
  TRACK 08 AUDIO
    TITLE "0:"
    INDEX 01 00:09:55
  TRACK 09 AUDIO
    TITLE "4:cjc005_0048"
    INDEX 01 00:10:14
  TRACK 10 AUDIO
    TITLE "0:"
    INDEX 01 00:12:26
  TRACK 11 AUDIO
    TITLE "5:cjc005_0049"
    INDEX 01 00:12:58
  TRACK 12 AUDIO
    TITLE "0:"
    INDEX 01 00:15:68
  TRACK 13 AUDIO
    TITLE "3:cjc005_0050"
    INDEX 01 00:16:51
  TRACK 14 AUDIO
    TITLE "0:"
    INDEX 01 00:18:05
  TRACK 15 AUDIO
    TITLE "4:cjc005_0051"
    INDEX 01 00:18:33
  TRACK 16 AUDIO
    TITLE "0:"
    INDEX 01 00:19:52
  TRACK 17 AUDIO
    TITLE "5:cjc005_0052"
    INDEX 01 00:20:04
  TRACK 18 AUDIO
    TITLE "0:"
    INDEX 01 00:24:53
  TRACK 19 AUDIO
    TITLE "3:cjc005_0053"
    INDEX 01 00:25:37
  TRACK 20 AUDIO
    TITLE "0:"
    INDEX 01 00:27:26
  TRACK 21 AUDIO
    TITLE "4:cjc005_0054"
    INDEX 01 00:27:49
  TRACK 22 AUDIO
    TITLE "0:"
    INDEX 01 00:29:13
  TRACK 23 AUDIO
    TITLE "5:cjc005_0055"
    INDEX 01 00:29:36
  TRACK 24 AUDIO
    TITLE "0:"
    INDEX 01 00:33:17
  TRACK 25 AUDIO
    TITLE "3:cjc005_0056"
    INDEX 01 00:33:73
  TRACK 26 AUDIO
    TITLE "0:"
    INDEX 01 00:35:17
  TRACK 27 AUDIO
    TITLE "4:cjc005_0057"
    INDEX 01 00:35:47
  TRACK 28 AUDIO
    TITLE "0:"
    INDEX 01 00:37:16
  TRACK 29 AUDIO
    TITLE "5:cjc005_0058"
    INDEX 01 00:37:42
  TRACK 30 AUDIO
    TITLE "0:"
    INDEX 01 00:41:57
  TRACK 31 AUDIO
    TITLE "3:cjc005_0059"
    INDEX 01 00:42:37
  TRACK 32 AUDIO
    TITLE "0:"
    INDEX 01 00:44:44
  TRACK 33 AUDIO
    TITLE "4:cjc005_0060"
    INDEX 01 00:44:73
  TRACK 34 AUDIO
    TITLE "0:"
    INDEX 01 00:47:28
  TRACK 35 AUDIO
    TITLE "5:cjc005_0061"
    INDEX 01 00:47:50
  TRACK 36 AUDIO
    TITLE "0:"
    INDEX 01 00:50:50
  TRACK 37 AUDIO
    TITLE "3:cjc005_0062"
    INDEX 01 00:51:32
  TRACK 38 AUDIO
    TITLE "0:"
    INDEX 01 00:52:59
  TRACK 39 AUDIO
    TITLE "4:cjc005_0063"
    INDEX 01 00:53:09
  TRACK 40 AUDIO
    TITLE "0:"
    INDEX 01 00:54:38
  TRACK 41 AUDIO
    TITLE "5:cjc005_0064"
    INDEX 01 00:54:66
  TRACK 42 AUDIO
    TITLE "0:"
    INDEX 01 00:58:05
  TRACK 43 AUDIO
    TITLE "3:cjc005_0065"
    INDEX 01 00:58:67
  TRACK 44 AUDIO
    TITLE "0:"
    INDEX 01 01:00:04
  TRACK 45 AUDIO
    TITLE "4:cjc005_0066"
    INDEX 01 01:00:39
  TRACK 46 AUDIO
    TITLE "0:"
    INDEX 01 01:02:10
  TRACK 47 AUDIO
    TITLE "5:cjc005_0067"
    INDEX 01 01:02:36
  TRACK 48 AUDIO
    TITLE "0:"
    INDEX 01 01:06:57
  TRACK 49 AUDIO
    TITLE "3:cjc005_0068"
    INDEX 01 01:07:39
  TRACK 50 AUDIO
    TITLE "0:"
    INDEX 01 01:08:64
  TRACK 51 AUDIO
    TITLE "4:cjc005_0069"
    INDEX 01 01:09:14
  TRACK 52 AUDIO
    TITLE "0:"
    INDEX 01 01:10:35
  TRACK 53 AUDIO
    TITLE "5:cjc005_0070"
    INDEX 01 01:10:61
  TRACK 54 AUDIO
    TITLE "0:"
    INDEX 01 01:15:11
  TRACK 55 AUDIO
    TITLE "3:cjc005_0071"
    INDEX 01 01:15:66
  TRACK 56 AUDIO
    TITLE "0:"
    INDEX 01 01:17:39
  TRACK 57 AUDIO
    TITLE "4:cjc005_0072"
    INDEX 01 01:17:69
  TRACK 58 AUDIO
    TITLE "0:"
    INDEX 01 01:19:30
  TRACK 59 AUDIO
    TITLE "5:cjc005_0073"
    INDEX 01 01:19:56
  TRACK 60 AUDIO
    TITLE "0:"
    INDEX 01 01:24:04
  TRACK 61 AUDIO
    TITLE "3:cjc005_0074"
    INDEX 01 01:24:69
  TRACK 62 AUDIO
    TITLE "0:"
    INDEX 01 01:26:36
  TRACK 63 AUDIO
    TITLE "4:cjc005_0075"
    INDEX 01 01:26:70
  TRACK 64 AUDIO
    TITLE "0:"
    INDEX 01 01:28:41
  TRACK 65 AUDIO
    TITLE "5:cjc005_0076"
    INDEX 01 01:28:67
  TRACK 66 AUDIO
    TITLE "0:"
    INDEX 01 01:33:11
  TRACK 67 AUDIO
    TITLE "3:cjc005_0077"
    INDEX 01 01:33:72
  TRACK 68 AUDIO
    TITLE "0:"
    INDEX 01 01:35:43
  TRACK 69 AUDIO
    TITLE "4:cjc005_0078"
    INDEX 01 01:36:03
  TRACK 70 AUDIO
    TITLE "0:"
    INDEX 01 01:37:40
  TRACK 71 AUDIO
    TITLE "5:cjc005_0079"
    INDEX 01 01:37:68
  TRACK 72 AUDIO
    TITLE "0:"
    INDEX 01 01:40:62
  TRACK 73 AUDIO
    TITLE "3:cjc005_0080"
    INDEX 01 01:41:42
  TRACK 74 AUDIO
    TITLE "0:"
    INDEX 01 01:43:41
  TRACK 75 AUDIO
    TITLE "4:cjc005_0081"
    INDEX 01 01:43:64
  TRACK 76 AUDIO
    TITLE "0:"
    INDEX 01 01:46:55
  TRACK 77 AUDIO
    TITLE "5:cjc005_0082"
    INDEX 01 01:47:05
  TRACK 78 AUDIO
    TITLE "0:"
    INDEX 01 01:51:25
  TRACK 79 AUDIO
    TITLE "3:cjc005_0083"
    INDEX 01 01:52:06
  TRACK 80 AUDIO
    TITLE "0:"
    INDEX 01 01:54:05
  TRACK 81 AUDIO
    TITLE "4:cjc005_0084"
    INDEX 01 01:54:35
  TRACK 82 AUDIO
    TITLE "0:"
    INDEX 01 01:56:34
  TRACK 83 AUDIO
    TITLE "5:cjc005_0085"
    INDEX 01 01:56:57
  TRACK 84 AUDIO
    TITLE "0:"
    INDEX 01 02:00:69
